HIERARCHY
ROOT hip
{
	OFFSET 0.000000 0.000000 0.000000 
	CHANNELS 6 Xposition Yposition Zposition Xrotation Zrotation Yrotation
	JOINT abdomen
	{
		OFFSET 0.000000 3.402643 0.000000 
		CHANNELS 3 Xrotation Zrotation Yrotation
		JOINT chest
		{
			OFFSET 0.000000 8.438565 -0.680529 
			CHANNELS 3 Xrotation Zrotation Yrotation
			JOINT neck
			{
				OFFSET 0.000000 10.207942 -0.272212 
				CHANNELS 3 Xrotation Zrotation Yrotation
				JOINT head
				{
					OFFSET 0.000000 3.130431 0.000000 
					CHANNELS 3 Xrotation Zrotation Yrotation
					End Site
					{
						OFFSET 0.000000 3.130435 0.000000 
					}
				}
			}
			JOINT lCollar
			{
				OFFSET 3.470700 6.669187 -0.816635 
				CHANNELS 3 Yrotation Zrotation Xrotation
				JOINT lShldr
				{
					OFFSET 3.198488 0.000000 0.000000 
					CHANNELS 3 Zrotation Yrotation Xrotation
					JOINT lForeArm
					{
						OFFSET 10.139888 0.000000 0.000000 
						CHANNELS 3 Yrotation Zrotation Xrotation
						JOINT lHand
						{
							OFFSET 8.370511 0.000000 0.000000 
							CHANNELS 3 Zrotation Yrotation Xrotation
							End Site
							{
								OFFSET 4.083176 0.000000 0.000000 
							}
						}
					}
				}
			}
			JOINT rCollar
			{
				OFFSET -3.470700 6.669187 -0.816635 
				CHANNELS 3 Yrotation Zrotation Xrotation
				JOINT rShldr
				{
					OFFSET -3.198488 0.000000 0.000000 
					CHANNELS 3 Zrotation Yrotation Xrotation
					JOINT rForeArm
					{
						OFFSET -10.139888 0.000000 0.000000 
						CHANNELS 3 Yrotation Zrotation Xrotation
						JOINT rHand
						{
							OFFSET -8.370511 0.000000 0.000000 
							CHANNELS 3 Zrotation Yrotation Xrotation
							End Site
							{
								OFFSET -4.083176 0.000000 0.000000 
							}
						}
					}
				}
			}
		}
	}
	JOINT lThigh
	{
		OFFSET 5.308129 -1.633274 1.361059 
		CHANNELS 3 Xrotation Zrotation Yrotation
		JOINT lShin
		{
			OFFSET -2.041588 -20.007561 0.000000 
			CHANNELS 3 Xrotation Zrotation Yrotation
			JOINT lFoot
			{
				OFFSET 0.000000 -19.190928 -1.224953 
				CHANNELS 3 Xrotation Yrotation Zrotation
				End Site
				{
					OFFSET 0.000000 -2.449906 4.627600 
				}
			}
		}
	}
	JOINT rThigh
	{
		OFFSET -5.308129 -1.633274 1.361059 
		CHANNELS 3 Xrotation Zrotation Yrotation
		JOINT rShin
		{
			OFFSET 2.041588 -20.007561 0.000000 
			CHANNELS 3 Xrotation Zrotation Yrotation
			JOINT rFoot
			{
				OFFSET 0.000000 -19.190928 -1.224953 
				CHANNELS 3 Xrotation Yrotation Zrotation
				End Site
				{
					OFFSET 0.000000 -2.449906 4.627600 
				}
			}
		}
	}
}
MOTION
Frames: 18
Frame Time: 0.050000
-3.335582 40.466843 2.098077 6.517753 -11.036734 -59.352383 11.376912 -7.022136 -27.696075 0.000000 0.000000 0.000000 -9.215233 -15.048092 4.751573 18.992912 -1.940166 78.005150 -37.268883 -24.498146 -0.358056 4.997950 -111.618492 -7.148369 -42.377167 6.089058 45.244667 18.795271 11.330848 -2.318190 2.455827 19.328707 -2.194727 8.051467 29.498743 -54.334068 109.790146 6.859433 76.872215 2.890369 -16.242376 -104.605507 26.541920 30.837164 -3.028630 -10.940257 -37.190769 84.189270 -20.924673 0.315512 0.247460 -10.074584 13.129624 -2.559214 27.058800 -3.583528 32.894558 -11.011071 0.561458 -1.023729 
-2.365914 40.397232 2.271961 4.289757 -10.930547 -53.922199 14.652921 -6.712497 -27.361881 0.000000 0.000000 0.000000 -10.202178 -14.724642 4.855402 20.153875 -1.837954 69.846329 -36.373871 -23.526762 0.379275 8.650140 -112.836983 -12.613005 -41.715179 6.014679 42.748791 15.075238 11.598400 -2.190630 1.500647 20.270060 -2.385014 8.829692 28.264858 -52.145767 109.833038 6.858982 75.855904 3.063111 -15.751376 -104.936852 20.650238 30.643381 -3.784317 -1.898244 -40.391182 74.694084 -22.409851 0.428937 -0.771198 -12.358312 8.527052 -2.755166 31.256592 -2.499251 27.668602 -13.088737 0.729583 -1.010013 
-0.931205 40.296303 2.361273 0.721377 -10.056096 -44.981922 19.713543 -4.749340 -27.308830 0.000000 0.000000 0.000000 -11.832163 -14.069624 4.992469 21.513050 -1.885535 58.445267 -33.976151 -22.767836 0.709706 20.280510 -113.592545 -25.346251 -38.918606 6.014047 42.284946 11.797244 10.979748 -2.045298 3.831831 22.639879 -2.263727 12.244353 24.785673 -48.395248 109.664436 6.898162 70.187691 -2.377272 -28.050388 -96.425468 12.232448 28.445501 -4.471088 13.121006 -40.701191 57.397499 -23.815372 0.529807 -1.919328 -14.029812 2.543951 -2.876343 35.154064 -0.498784 20.488180 -15.547834 0.833311 -0.846459 
0.731449 40.220943 2.329919 -3.429154 -7.490274 -31.546406 24.716328 -0.674912 -26.164068 0.000000 0.000000 0.000000 -13.921762 -13.075547 5.061947 22.937496 -2.056270 45.070827 -31.357037 -22.321707 0.704729 40.106594 -113.721275 -48.424541 -36.069672 6.009874 42.473763 10.100242 11.570109 -1.990357 9.948922 24.903074 -2.316506 19.303167 20.119215 -42.357952 106.575485 7.068440 59.725010 -15.005058 -46.653419 -81.161720 3.375006 21.909594 -4.409450 26.575874 -34.168415 39.733677 -24.507627 0.500892 -2.508515 -13.788578 -5.658185 -3.013938 36.918163 2.383455 11.161129 -17.451523 1.042135 -0.264363 
2.343484 40.277832 2.179911 -7.153483 -2.317281 -15.651831 26.616690 5.686990 -22.057142 0.000000 0.000000 0.000000 -14.547002 -11.310470 4.699697 24.241085 -2.426280 28.058723 -30.643433 -22.462275 0.520479 -6.689018 -93.662445 -6.147568 -25.583660 6.007512 43.020348 -1.238192 16.700676 -1.612025 16.067024 24.877069 -2.916896 30.821764 14.124789 -29.683886 94.793411 7.532412 34.290375 -27.984352 -52.286037 -63.255867 -0.975341 12.118875 -3.790672 31.712837 -24.549339 24.802612 -23.701876 0.502490 -2.265630 -10.434510 -15.631058 -3.142562 37.232899 6.112774 -0.331999 -19.126451 0.942709 0.428850 
3.655445 40.514706 2.071203 -9.172777 4.648408 2.205986 24.779736 12.497084 -16.373878 0.000000 0.000000 0.000000 -13.642323 -7.358229 3.651954 25.337416 -2.751873 8.940295 -31.330719 -22.695932 0.452254 -88.761818 -51.094017 71.115921 -12.821278 5.416713 29.742310 -7.524329 21.328199 -1.464587 21.561377 24.832260 -3.743101 44.069122 9.277781 -11.957767 77.795998 9.188403 12.631121 -5.025415 -57.813766 -66.535507 -1.200767 2.128315 -3.523428 30.387241 -15.917493 11.260437 -21.336239 0.579824 -1.838946 -1.099614 -23.729464 -3.485513 33.952717 10.484556 -15.554501 -19.284096 0.700132 1.292839 
4.474971 40.885933 2.302399 -9.506410 11.710840 19.834951 19.047428 17.498610 -9.453348 0.000000 0.000000 0.000000 -12.809481 -0.956352 2.158392 25.978758 -2.830046 -9.487364 -30.541519 -20.908915 1.523698 -78.073784 -34.763699 61.595444 -10.337831 3.073367 -9.277912 -7.332520 31.889332 -2.160363 23.986580 24.799503 -4.450013 50.024673 10.781249 10.405271 55.944981 7.345027 44.979218 71.637932 -70.114494 -114.197571 3.218953 -4.897629 -3.975017 28.110332 -10.317059 -2.586380 -20.032618 0.454676 -1.385891 12.948565 -27.071238 -3.878106 27.402702 13.516406 -30.820641 -17.057850 0.345554 2.342206 
4.989922 41.189617 2.952879 -8.424107 17.319485 37.574024 12.223957 19.978233 -0.892733 0.000000 0.000000 0.000000 -13.179823 7.148362 0.266483 26.136908 -2.445590 -25.317896 -25.797583 -15.881259 3.511470 -71.633644 -23.977856 54.965881 -25.654663 2.353346 -30.126196 10.879107 42.414787 -4.046821 27.134363 24.746582 -5.371224 54.858017 20.889557 34.614513 40.558228 4.030551 45.824924 47.933567 -64.720016 -78.087502 8.710933 -6.914064 -4.549178 27.176929 -7.472847 -14.783607 -19.924896 0.133023 -1.207738 25.074827 -24.283291 -4.090366 22.725071 12.646352 -41.345039 -13.333859 0.131675 3.150152 
5.353408 41.294666 3.944172 -6.214016 20.073603 52.890015 5.873477 19.501850 7.753722 0.000000 0.000000 0.000000 -16.367149 12.307403 -1.967026 24.307808 -1.865494 -33.858540 -18.412439 -11.233884 3.295105 -62.345535 -25.755039 35.923405 -44.791271 2.722387 -26.682489 26.966143 38.520187 -4.077479 30.008671 24.798037 -4.636294 55.787399 41.423531 43.926987 40.734394 3.623679 57.823963 39.796463 -56.651230 -69.004868 10.180093 -4.597518 -4.668894 30.199160 -5.612779 -26.353096 -21.211287 -0.284344 -1.477578 31.704826 -17.887722 -3.963945 23.865618 10.338118 -40.539082 -9.088855 0.429971 2.873930 
5.712967 41.285004 4.923468 -3.312775 20.544092 68.727409 1.205938 17.379173 14.043427 0.000000 0.000000 0.000000 -20.630566 11.866158 -3.252040 26.193745 0.214089 -35.713150 -13.488937 -10.677554 1.814690 -50.453045 -36.625122 14.484099 -59.506638 2.969129 -14.021600 37.132103 33.942345 -3.952985 36.089054 24.889482 -2.774733 54.197422 68.963303 45.277203 36.903183 2.743603 71.696281 39.779484 -54.429874 -73.384857 8.318444 -1.601404 -4.607077 34.320621 -2.582621 -36.993198 -22.534046 -0.689990 -1.945636 33.621311 -11.943042 -3.767459 27.790836 9.878386 -31.551311 -5.293839 0.794687 1.736788 
6.076873 41.281216 5.678448 -0.270623 19.128241 83.881050 -1.245288 14.137860 16.601912 0.000000 0.000000 0.000000 -24.669348 6.751846 -2.418969 26.391035 2.299800 -34.298828 -12.467375 -12.382437 1.074295 -31.117775 -53.421524 -11.753901 -58.530106 3.721285 0.071228 35.682617 29.800163 -3.614940 34.846222 18.957993 3.748102 50.370377 93.536926 39.989151 25.717325 0.879219 87.074135 43.127670 -56.329498 -86.147095 4.335206 0.263170 -4.514331 36.755909 1.722450 -46.986820 -22.763531 -0.951536 -2.565321 31.987848 -7.011141 -3.827194 31.567453 10.717564 -19.175077 -1.566160 1.027463 0.594797 
6.473896 41.401070 6.232107 2.023272 17.027336 97.051163 -2.468316 11.267202 17.467718 0.000000 0.000000 0.000000 -27.877781 1.581946 -0.595746 26.578659 4.578887 -33.381859 -12.302322 -13.494861 0.727368 2.940923 -59.213234 -44.457108 -56.522701 4.355348 10.307864 40.305771 29.221563 -3.596428 32.132366 10.816107 8.877750 49.587719 114.978050 37.599621 12.730094 -1.505018 98.047829 40.116257 -54.943775 -93.976257 1.039362 1.167289 -4.479984 36.512787 5.442080 -55.527657 -22.051470 -1.131507 -3.103324 29.476978 -2.870764 -4.094875 33.461933 11.162137 -8.370380 2.780484 1.107269 -0.252160 
6.785000 41.572376 6.467098 2.972287 15.754787 105.865135 -3.000093 9.955120 17.876026 0.000000 0.000000 0.000000 -29.175665 -0.732399 0.449182 26.711504 6.058867 -33.403412 -11.870660 -13.843576 0.552222 23.653147 -55.253040 -64.352585 -60.294182 4.552729 18.959269 47.635067 28.116362 -3.503880 30.380978 6.111887 10.451589 45.749092 131.189789 25.860952 5.770773 -2.620075 114.874031 30.767471 -51.125061 -95.298775 -0.029722 1.419949 -4.485020 35.108269 6.988300 -60.658669 -21.310324 -1.131676 -3.390349 27.951763 -0.732903 -4.344450 33.579220 10.961885 -0.823693 6.989566 1.102340 -0.619610 
7.278723 41.836815 6.618333 3.851048 14.433316 112.226364 -3.899381 8.860534 18.876646 0.000000 0.000000 0.000000 -30.427383 -2.235845 1.192023 26.835396 8.069951 -34.103966 -11.007380 -14.647157 0.148985 28.205429 -48.774551 -74.629204 -72.874565 5.034461 31.895323 51.714039 27.355509 -3.401475 28.500378 4.224710 11.124224 44.458630 138.832947 21.155251 11.708177 -1.840159 121.062233 17.831001 -40.613098 -90.657158 -0.078128 1.840336 -4.496578 32.452450 8.005433 -63.689518 -20.217894 -1.098618 -3.647328 26.340485 1.668914 -4.601102 33.166370 10.353896 4.391212 11.664253 1.113549 -1.024192 
7.722317 41.983952 6.585882 4.641210 13.568836 116.317673 -4.954445 8.246092 20.040617 0.000000 0.000000 0.000000 -30.858131 -2.509110 1.309477 26.963779 9.708377 -34.575844 -9.933369 -15.735672 -0.329416 25.769985 -43.409492 -76.120293 -86.379395 4.896724 45.791897 48.724812 34.608704 -3.696310 27.651440 3.221933 11.202916 43.060352 139.466019 22.985039 27.923582 0.810171 113.407394 7.608183 -31.400166 -88.218323 0.302562 1.990792 -4.499547 30.635891 8.247904 -66.268448 -19.356558 -1.058527 -3.804188 25.513109 3.007032 -4.856782 32.515293 9.874112 7.877482 14.275863 1.160900 -1.214118 
7.992126 41.930771 6.395473 5.543778 12.997350 119.169342 -5.940878 8.070621 21.108042 0.000000 0.000000 0.000000 -30.154465 -2.430977 1.338757 27.047173 10.887031 -34.032799 -8.510109 -16.635403 -0.795574 22.844736 -38.065762 -73.435837 -96.368782 4.852914 57.469624 40.451870 46.361210 -4.875292 28.183010 3.463479 11.395993 42.547707 136.771927 25.732050 40.378654 2.920055 100.004486 1.232021 -21.185993 -85.031494 0.290211 1.351038 -4.509027 30.450174 8.243762 -67.515015 -18.813997 -1.063829 -3.816512 25.446865 2.967821 -4.855368 32.360020 9.899570 10.506407 15.799653 1.238790 -1.304529 
8.091666 41.793339 6.175475 6.393019 12.503428 120.608147 -6.641531 8.258656 21.987890 0.000000 0.000000 0.000000 -28.888248 -2.626024 1.524969 27.128149 11.789435 -32.867241 -7.026976 -17.091383 -1.175500 19.090899 -31.841022 -66.583611 -103.777054 4.443643 62.075462 40.633152 49.798359 -6.182207 29.350330 4.321666 11.602160 41.263142 132.814056 26.324453 47.145012 3.927590 85.000488 -1.346944 -14.001753 -81.999687 -0.107715 0.282861 -4.478095 31.094982 8.237505 -67.914627 -18.435890 -1.086729 -3.842806 25.513863 2.079301 -4.782809 32.492687 10.133451 12.416197 15.964665 1.282616 -1.335315 
8.039040 41.670933 6.018038 6.869460 11.985548 120.734383 -7.024502 8.817479 22.645950 0.000000 0.000000 0.000000 -28.352749 -2.801557 1.661990 27.184292 12.479189 -31.630182 -6.257318 -17.024103 -1.318616 15.635772 -25.468292 -59.170395 -108.040359 4.136685 61.394344 45.944508 42.084190 -4.974569 30.430904 5.405197 11.578478 36.375916 129.102127 23.020004 49.591076 4.434066 77.367729 0.499058 -11.320541 -80.884674 -0.653131 -0.759377 -4.475525 31.669207 8.106652 -67.334679 -18.091091 -1.113603 -3.949968 25.245935 0.653401 -4.658184 32.936279 10.534320 14.605700 15.271012 1.306311 -1.394831 
